<?xml version="1.0" encoding="utf-8"?>
<!-- Generator: Adobe Illustrator 16.0.3, SVG Export Plug-In . SVG Version: 6.00 Build 0)  -->
<!DOCTYPE svg PUBLIC "-//W3C//DTD SVG 1.1//EN" "http://www.w3.org/Graphics/SVG/1.1/DTD/svg11.dtd">
<svg version="1.1" id="Layer_1" xmlns="http://www.w3.org/2000/svg" xmlns:xlink="http://www.w3.org/1999/xlink" x="0px" y="0px"
	 width="858.195px" height="978.223px" viewBox="0 0 858.195 978.223" enable-background="new 0 0 858.195 978.223"
	 xml:space="preserve">
<g>
	<g>
		<path fill-rule="evenodd" clip-rule="evenodd" fill="#2691FE" d="M1,763.174c0-182.709,0-365.417,0-548.125
			c3.404-1.521,6.121,0.44,8.904,1.829c57.198,28.542,114.36,57.156,171.534,85.746c23.376,11.69,46.762,23.359,70.125,35.074
			c2.871,1.438,5.757,2.801,6.284,6.489c0.37,1.963-0.597,3.551-1.456,5.169c-10.62,20.002-21.187,40.034-31.858,60.007
			c-18.597,34.808-36.948,69.746-55.597,104.527c-9.286,17.316-18.422,34.716-27.626,52.078
			c-19.42,36.633-38.793,73.292-58.356,109.852c-10.454,19.536-21.899,38.495-32.907,57.708c-4.624,8.071-4.476,8.326,4.981,8.328
			c17.664,0.004,35.349,0.533,52.986-0.157c15.817-0.618,31.641-1.34,47.429-0.716c25.645,1.014,51.286,0.644,76.926,0.984
			c5.807,0.077,8.951-1.752,11.379-7.201c12.944-29.049,26.228-57.945,39.421-86.882c8.842-19.394,17.664-38.796,26.483-58.2
			c11.229-24.708,22.408-49.44,33.694-74.122c9.072-19.837,18.146-39.674,27.126-59.553c6.169-13.658,12.562-27.213,18.634-40.915
			c0.955-2.151,1.904-4.312,4.499-4.995c2.246-0.204,4.19,0.718,6.117,1.676c9.906,4.928,19.793,9.891,29.691,14.833
			c2.596,1.296,4.839,2.844,5.665,5.833c0.527,3.323,0.397,6.663,0.397,9.993c0.012,174.699,0.012,349.398-0.006,524.097
			c0,3.652,0.325,7.35-0.919,10.89c-0.492,2.274-2.046,2.156-3.842,1.778c-3.107-0.653-6.094-1.543-8.963-2.979
			C283.813,907.213,145.859,838.249,7.896,769.303C5.001,767.856,2.332,766.308,1,763.174z"/>
		<path fill-rule="evenodd" clip-rule="evenodd" fill="#FEFEFE" d="M1,763.174c143.133,71.609,286.266,143.218,429.403,214.816
			c0.868,0.435,1.813,0.715,2.722,1.068c1.639-3.669,5.08-5.088,8.359-6.727c64.231-32.115,128.463-64.228,192.692-96.346
			c71.232-35.62,142.432-71.311,213.772-106.717c6.613-3.282,9.058-7.147,9.049-14.556c-0.192-174.293-0.147-348.586-0.169-522.88
			c-0.001-3.985,0.288-7.971-0.003-11.943c-0.754-2.431-3.081-2.884-4.96-3.825C713.958,147.07,576.034,78.108,438.108,9.149
			c-2.531-1.266-5.109-2.447-7.544-3.896c-1.587-0.944-3.241-1.911-2.467-4.253c142.504,0,285.007,0.015,427.511-0.084
			c3.589-0.002,4.695,0.552,4.693,4.497c-0.114,323.509-0.112,647.018-0.017,970.526c0.001,3.516-0.609,4.389-4.307,4.387
			c-283.508-0.113-567.015-0.113-850.522-0.002c-3.854,0.002-4.554-0.973-4.547-4.646C1.032,904.844,1,834.008,1,763.174z"/>
		<path fill-rule="evenodd" clip-rule="evenodd" fill="#64B0FE" d="M428.098,1c13.814,8.109,28.412,14.699,42.711,21.858
			c127.426,63.801,254.918,127.472,382.362,191.24c2.099,1.05,4.9,1.302,5.887,4.052c-1.094,2.584-3.055,4.174-5.554,5.421
			c-70.584,35.257-141.145,70.559-211.727,105.817c-2.385,1.19-4.764,2.503-7.58,1.326c-3.999-3.553-4.622-8.787-6.222-13.387
			c-10.564-30.375-21.325-60.682-31.862-91.065c-6.825-19.679-13.8-39.304-20.635-58.979c-2.568-7.397-3.385-8.144-11.134-7.863
			c-59.646,2.159-119.313,0.305-178.966,1.008c-7.854,0.092-15.606-1.018-23.437-1.213c-6.293-0.157-9.662,2.235-12.28,7.803
			c-15.043,31.972-30.843,63.583-47.001,95c-13.56,26.365-27.648,52.464-41.738,78.555c-1.008,1.866-1.868,4.075-4.698,3.701
			c-0.804-2.878-3.557-3.313-5.702-4.388C167.36,298.25,84.179,256.652,1,215.049c0-0.333,0-0.667,0-1
			c1.504-3.776,4.968-5.153,8.246-6.791C110.736,156.534,212.222,105.8,313.694,55.042c29.801-14.907,59.614-29.789,89.405-44.715
			C410.523,6.608,417.798,2.55,426.097,1C426.764,1,427.43,1,428.098,1z"/>
		<path fill-rule="evenodd" clip-rule="evenodd" fill="#FEFEFE" d="M426.097,1c-13.996,8.12-28.729,14.795-43.177,22.027
			C255.631,86.735,128.311,150.383,1,214.049C1,144.42,1.043,74.792,0.884,5.165C0.875,1.328,1.958,0.921,5.331,0.923
			C145.586,1.013,285.841,1,426.097,1z"/>
		<path fill-rule="evenodd" clip-rule="evenodd" fill="#FEFEFE" d="M256.224,344.272c18.535-34.614,37.209-69.152,54.893-104.219
			c12.968-25.714,25.778-51.502,38.001-77.576c1.835-3.914,4.092-5.171,8.354-5.128c39.802,0.409,79.607,0.684,119.411,0.803
			c25.65,0.077,51.302-0.152,76.953-0.292c5.157-0.028,10.333-0.046,15.465-0.487c4.071-0.349,5.762,1.286,7.073,5.069
			c15.482,44.658,31.137,89.256,46.783,133.857c3.965,11.299,8.064,22.552,12.103,33.826c2.503,0.912,3.239,3.145,4.073,5.348
			c11.982,31.627,23.537,63.413,35.337,95.108c16.507,44.341,32.906,88.722,49.301,133.105
			c14.144,38.289,28.307,76.57,42.486,114.846c7.175,19.371,15.294,38.385,22.897,57.597c0.491,1.241,1.004,2.472,1.342,3.762
			c1.096,4.183-0.064,6.062-4.378,6.403c-6.151,0.486-12.329,0.181-18.495,0.197c-11.835,0.033-23.67-0.012-35.504,0.016
			c-13.658,0.031-27.267-1.586-40.943-1.026c-25.637,1.049-51.29,1.187-76.945,1.02c-2.166-0.015-4.332-0.051-6.498-0.114
			c-3.604-0.105-5.845-1.768-6.979-5.268c-13.986-43.112-27.849-86.265-41.794-129.391c-9.229-28.54-18.474-57.077-27.71-85.614
			c-12.88-39.792-25.771-79.581-38.53-119.411c-0.51-1.591-0.701-3.256-1.271-4.82c-6.355-17.896-11.802-36.095-17.707-54.144
			c-6.319-19.32-12.616-38.647-18.713-58.04c-0.341-1.084-0.425-2.325-1.8-3.343c-3.611,5.448-5.703,11.601-8.352,17.419
			c-9.94,21.826-19.879,43.652-29.863,65.457c-5.618,12.266-11.161,24.565-16.734,36.851c-0.975,2.15-1.667,4.428-4.402,4.961
			c-5.05,10.625-10.229,21.189-15.125,31.884c-14.512,31.695-28.921,63.438-43.356,95.167c-8.323,18.294-16.619,36.6-24.926,54.9
			c-14.521,31.985-29.062,63.962-43.556,95.96c-7.818,17.262-15.618,34.531-23.272,51.865c-1.344,3.041-3.385,3.422-6.274,3.395
			c-36.985-0.348-73.971-0.778-110.957-0.82c-26.317-0.03-52.636,0.498-78.954,0.772c-1.77,0.019-3.54,0.002-6.293,0.002
			c5.142-8.945,9.779-17.138,14.531-25.265c34.291-58.646,64.671-119.401,96.741-179.244
			c34.271-63.952,68.114-128.134,102.135-192.22C255.312,346.416,255.742,345.33,256.224,344.272z"/>
		<path fill-rule="evenodd" clip-rule="evenodd" fill="#0682FE" d="M493.224,400.986c5.291,15.812,10.691,31.589,15.846,47.445
			c6.826,21.002,13.432,42.076,20.184,63.101c6.951,21.645,13.96,43.27,20.951,64.901c6.991,21.63,13.995,43.257,20.99,64.887
			c7.045,21.784,14.109,43.562,21.118,65.356c3.677,11.435,7.316,22.882,10.824,34.37c0.861,2.817,2.554,3.205,5.14,3.17
			c26.324-0.355,52.649-0.84,78.974-0.821c32.157,0.024,64.313,0.496,96.47,0.771c1.814,0.017,3.63,0.002,6.071,0.002
			c-2.373-6.044-4.53-11.59-6.727-17.12c-37.831-95.228-71.761-191.914-107.788-287.816
			c-12.984-34.563-25.635-69.251-38.419-103.889c-0.628-1.704-1.07-3.477-1.599-5.218c55.273-27.676,110.545-55.357,165.823-83.025
			c19.315-9.668,38.65-19.302,57.976-28.952c0.046,1.664,0.132,3.328,0.132,4.991c0.006,179.127-0.011,358.254,0.108,537.379
			c0.003,4.222-1.226,6.317-5.027,8.214c-139.399,69.553-278.737,139.232-418.084,208.891c-1.009,0.503-2.041,0.957-3.062,1.435
			c0.01-182.602,0.021-365.203,0.03-547.805c-0.141-2.694,1.861-3.707,3.789-4.682c16.851-8.518,33.76-16.917,50.659-25.338
			C489.435,400.322,491.288,399.647,493.224,400.986z"/>
		<path fill-rule="evenodd" clip-rule="evenodd" fill="#64B0FE" d="M493.224,400.986c-20.023,10.089-40.046,20.178-60.068,30.268
			c-11.354-5.711-22.716-11.408-34.056-17.147c-1.748-0.884-3.701-1.467-5.023-3.062c3.871-10.864,9.218-21.081,13.936-31.571
			c13.101-29.129,26.33-58.199,39.54-87.279c1.903-4.188,3.979-8.298,6.126-12.754c2.337,2.788,2.709,6.21,3.728,9.315
			c6.86,20.927,13.726,41.854,20.429,62.833C483.084,368.016,488.103,384.517,493.224,400.986z"/>
	</g>
</g>
</svg>
