<?xml version="1.0" encoding="utf-8"?>
<!-- Generator: Adobe Illustrator 16.0.3, SVG Export Plug-In . SVG Version: 6.00 Build 0)  -->
<!DOCTYPE svg PUBLIC "-//W3C//DTD SVG 1.1//EN" "http://www.w3.org/Graphics/SVG/1.1/DTD/svg11.dtd">
<svg version="1.1" id="Layer_1" xmlns="http://www.w3.org/2000/svg" xmlns:xlink="http://www.w3.org/1999/xlink" x="0px" y="0px"
	 width="156.811px" height="156.811px" viewBox="0 0 156.811 156.811" enable-background="new 0 0 156.811 156.811"
	 xml:space="preserve">
<g>
	<g>
		<path fill-rule="evenodd" clip-rule="evenodd" fill="#FEFEFE" d="M78.953,157.542c-25.708,0-51.417-0.013-77.125,0.035
			c-1.251,0.002-1.498-0.246-1.497-1.498c0.041-51.417,0.041-102.834,0-154.251C0.33,0.576,0.576,0.33,1.828,0.331
			c51.417,0.04,102.834,0.04,154.251,0c1.252-0.001,1.498,0.245,1.497,1.497c-0.04,51.417-0.04,102.834,0,154.251
			c0.001,1.252-0.245,1.5-1.497,1.498C130.371,157.529,104.662,157.542,78.953,157.542z"/>
		<path fill-rule="evenodd" clip-rule="evenodd" fill="#2691FE" d="M88.747,17.18c7.308,0,14.615,0.033,21.923-0.032
			c1.24-0.011,1.827,0.34,2.229,1.529c12.185,35.992,25.777,71.473,38.886,107.13c1.489,4.051,3.161,8.035,4.752,12.049
			c0.887,2.236,0.74,2.476-1.733,2.445c-5.295-0.064-10.59-0.237-15.885-0.231c-6.573,0.008-13.147,0.103-19.719,0.275
			c-1.494,0.04-2.063-0.266-2.508-1.839c-1.588-5.613-3.452-11.149-5.221-16.712c-3.554-11.181-7.106-22.362-10.673-33.539
			c-2.696-8.453-5.42-16.898-8.118-25.351c-1.703-5.333-3.365-10.679-5.102-16.001c-0.169-0.519-0.078-1.415-0.818-1.479
			c-0.743-0.065-0.76,0.815-0.982,1.305c-3.308,7.283-6.57,14.586-9.866,21.875c-1.952,4.314-3.954,8.605-5.913,12.917
			c-4.149,9.132-8.283,18.271-12.427,27.407c-1.825,4.023-3.652,8.047-5.487,12.066c-2.653,5.813-5.344,11.61-7.948,17.445
			c-0.617,1.384-1.397,1.962-2.988,1.908c-5.535-0.188-11.075-0.285-16.613-0.277c-7.244,0.01-14.487,0.162-21.731,0.232
			c-2.333,0.023-2.554-0.375-1.401-2.37c12.023-20.811,22.828-42.277,34.147-63.465c8.541-15.985,17.243-31.887,25.209-48.173
			c1.175-2.402,2.426-4.774,3.471-7.232c0.602-1.417,1.348-1.952,2.958-1.928C74.375,17.241,81.562,17.18,88.747,17.18z"/>
	</g>
</g>
</svg>
