<?xml version="1.0" encoding="utf-8"?>
<!-- Generator: Adobe Illustrator 16.0.3, SVG Export Plug-In . SVG Version: 6.00 Build 0)  -->
<!DOCTYPE svg PUBLIC "-//W3C//DTD SVG 1.1//EN" "http://www.w3.org/Graphics/SVG/1.1/DTD/svg11.dtd">
<svg version="1.1" id="Layer_1" xmlns="http://www.w3.org/2000/svg" xmlns:xlink="http://www.w3.org/1999/xlink" x="0px" y="0px"
	 width="2028.369px" height="1014.185px" viewBox="0 0 2028.369 1014.185" enable-background="new 0 0 2028.369 1014.185"
	 xml:space="preserve">
<g>
	<g>
		<path fill-rule="evenodd" clip-rule="evenodd" fill="#FEFEFE" d="M763.681,1015.199c-105.476,0-210.951,0-316.426,0
			c-2.271-2.774-1.613-6.102-1.616-9.242c-0.04-49.736-0.027-99.473-0.028-149.21c0-2.866,0.032-5.732-0.165-8.577
			c-0.805-3.132-3.787-3.631-6.088-4.818c-48.285-24.937-97.004-49.012-145.586-73.359c-3.266-1.638-7.018-2.839-8.028-7.104
			c-0.498-2.689-0.37-5.396-0.371-8.095c-0.009-60.78-0.009-121.561,0.001-182.341c0-2.697-0.149-5.407,0.39-8.075
			c0.198-0.879,0.551-1.694,1.093-2.413c1.303-1.624,3.142-2.508,4.951-3.41c49.828-24.893,99.629-49.839,149.463-74.718
			c0.604-0.302,1.221-0.575,1.859-0.8c3.476-1.038,6.245,0.861,9.059,2.311c49.101,25.282,98.636,49.705,147.998,74.467
			c1.603,0.803,3.042,2.277,5.122,1.66c51.13-25.377,102.121-51.019,153.158-76.571c1.351-0.676,2.574-1.641,4.15-1.805
			c2.301,0.049,4.176,1.287,6.112,2.283c48.524,24.986,97.443,49.188,146.25,73.615c3.357,1.68,6.797,3.28,7.303,7.693
			c0.285,2.198,0.24,4.396,0.24,6.591c0.008,61.661,0.007,123.321,0.001,184.982c0,2.194,0.057,4.394-0.204,6.567
			c-0.372,3.766-3.238,5.248-6.161,6.709c-13.742,6.866-27.502,13.7-41.239,20.577c-34.722,17.379-69.451,34.745-104.149,52.172
			c-2.23,1.121-5.497,1.454-5.48,5.125c0.067,52.189,0.038,104.361,0.012,156.533C765.3,1009.09,765.957,1012.422,763.681,1015.199z
			"/>
		<path fill-rule="evenodd" clip-rule="evenodd" fill="#FEFEFE" d="M917.837,1.014c317.777,0,635.556,0,953.334,0
			c1.739,1.945,1.632,4.361,1.633,6.711c0.028,61.55,0.038,123.102,0.002,184.652c-0.001,1.518-0.036,3.037-0.359,4.517
			c-1.149,3.922-4.778,5.01-7.863,6.564c-20.929,10.551-41.924,20.971-62.886,31.456c-27.446,13.729-54.885,27.475-82.328,41.21
			c-2.102,1.052-4.348,1.88-6.055,3.6c-0.643,0.811-1.316,1.574-2.464,1.601c-11.906-4.856-23.125-11.125-34.518-17.02
			c-31.977-16.546-64.368-32.264-96.497-48.504c-7.693-3.889-15.512-7.542-23.082-11.654c-3.488-1.894-6.275-1.923-9.887-0.104
			c-48.462,24.398-97.056,48.534-145.493,72.981c-5.547,2.8-10.056,2.945-15.636,0.042c-47.68-24.808-95.921-48.512-143.911-72.712
			c-4.145-2.09-7.245-1.887-11.259,0.134c-48.463,24.398-97.052,48.542-145.513,72.942c-4.851,2.441-8.903,2.625-13.796,0.091
			c-48.776-25.264-98.041-49.566-147.132-74.21c-2.948-1.481-6.384-2.57-7.522-6.319c-0.54-2.513-0.417-5.05-0.418-7.577
			c-0.009-59.719-0.017-119.438,0.021-179.156C916.211,7.116,915.559,3.786,917.837,1.014z"/>
		<path fill-rule="evenodd" clip-rule="evenodd" fill="#FEFEFE" d="M1393.489,1015.199c-103.784,0-207.569,0-311.354,0
			c-1.616-1.79-1.626-4.021-1.627-6.216c-0.037-51.86-0.058-103.72,0.006-155.579c0.002-1.183,0.069-2.364,0.299-3.521
			c0.928-4.067,4.522-5.204,7.642-6.766c43.949-22.013,87.918-43.99,131.887-65.966c4.381-2.189,8.729-4.456,13.149-6.561
			c3.136-1.492,4.616-3.765,4.394-7.22c-0.076-1.177-0.004-2.364-0.004-3.546c0.001-61.823-0.001-123.647,0.005-185.471
			c0.001-2.535-0.041-5.067-0.235-7.589c-0.06-0.545-0.021-1.09,0.098-1.625c0.848-2.252,2.837-3.27,4.797-4.251
			c50.128-25.119,100.297-50.157,150.451-75.227c0.756-0.378,1.546-0.677,2.388-0.848c2.693-0.438,4.967,0.76,7.217,1.917
			c48.381,24.9,97.132,49.062,145.824,73.339c4.861,2.425,6.831,5.771,6.821,11.186c-0.106,57.285-0.063,114.569-0.075,171.854
			c-0.001,1.854,0.083,3.726-0.586,5.507c-2.931,2.613-6.729,3.64-10.141,5.351c-47.961,24.06-95.983,47.994-143.929,72.084
			c-2.228,1.12-5.5,1.461-5.423,5.155c0.089,58.428,0.039,116.837,0.025,175.245
			C1395.116,1009.438,1395.671,1012.591,1393.489,1015.199z"/>
		<path fill-rule="evenodd" clip-rule="evenodd" fill="#FEFEFE" d="M1.014,543.603c0-179.4,0.01-358.801-0.079-538.202
			c-0.002-3.433,0.43-4.509,4.308-4.502C98.49,1.047,191.738,1.014,284.986,1.014c1.617,1.792,1.625,4.023,1.626,6.22
			c0.035,61.686,0.059,123.372-0.009,185.058c-0.001,1.184-0.073,2.365-0.291,3.519c-0.915,4.266-4.631,5.524-7.908,7.167
			c-39.855,19.985-79.774,39.843-119.629,59.831c-8.756,4.392-17.542,8.723-26.268,13.173c-1.86,0.949-4.335,1.5-4.129,4.456
			c0.065,63.288,0.028,126.559,0.031,189.83c0,2.864,0.156,5.74-0.328,8.575c-0.633,3.173-3.081,4.679-5.68,5.982
			C83.686,504.25,44.908,523.554,6.168,542.932C4.588,543.722,2.939,545.004,1.014,543.603z"/>
		<path fill-rule="evenodd" clip-rule="evenodd" fill="#64B0FE" d="M2029.384,469.567c0,53.075,0,106.151,0,159.228
			c-2.593,1.587-4.563-0.347-6.507-1.38c-20.421-10.856-41.198-21.008-61.864-31.379c-27.309-13.703-54.639-27.36-81.984-40.991
			c-2.253-1.124-4.411-2.513-6.982-2.869c-2.479,0.001-4.528,1.243-6.636,2.299c-33.824,16.935-67.738,33.693-101.451,50.847
			c-14.295,7.272-28.531,14.666-42.878,21.841c-1.958,0.979-3.851,2.129-6.039,2.579c-6.543-0.326-11.667-4.264-17.069-7.171
			c-16.504-8.882-33.384-17.004-50.121-25.414c-29.56-14.853-59.187-29.573-88.752-44.416c-2.271-1.141-5.347-1.651-5.604-5.111
			c1.106-1.637,2.933-2.22,4.576-3.028c49.161-24.203,97.716-49.609,146.816-73.931c2.251-1.115,4.381-2.573,6.986-2.832
			c10.856,3.838,20.802,9.613,30.964,14.878c41.372,21.436,83.261,41.839,124.872,62.797c1.355,0.683,2.721,1.366,4.283,1.437
			c2.168-0.513,4.067-1.639,6.026-2.616c49.073-24.494,98.12-49.042,147.161-73.601
			C2026.489,470.079,2027.691,468.898,2029.384,469.567z"/>
		<path fill-rule="evenodd" clip-rule="evenodd" fill="#64B0FE" d="M286.998,764.698c15.178,7.759,30.324,15.58,45.54,23.264
			c36.621,18.492,73.276,36.915,109.906,55.387c1.332,0.673,2.55,1.572,3.822,2.365c-0.063,3.376-3.159,3.53-5.165,4.536
			c-33.386,16.753-66.848,33.356-100.162,50.25c-14.921,7.566-29.731,15.353-44.725,22.778c-1.964,0.973-3.855,2.127-6.039,2.594
			c-6.246-0.126-11.07-3.938-16.181-6.673c-22.038-11.797-44.593-22.554-66.904-33.798c-24.125-12.16-48.307-24.203-72.5-36.226
			c-2.049-1.02-3.961-2.739-6.572-2.017C88.313,867.136,48.31,886.507,8.921,907.101c-2.445,1.279-4.72,3.435-7.907,2.623
			c0-43.272,0-86.544,0-129.815c2.812-0.888,4.833,1.044,7.005,2.123c38.048,18.921,76.047,37.939,113.834,57.377
			c2.235,1.149,4.401,2.522,6.978,2.856c2.57-0.368,4.731-1.743,6.981-2.868c48.997-24.505,98.003-48.992,146.986-73.526
			C284.105,765.215,285.309,764.045,286.998,764.698z"/>
		<path fill-rule="evenodd" clip-rule="evenodd" fill="#2691FE" d="M284.968,197.763c0.006-65.583,0.012-131.166,0.018-196.749
			c4.395,0,8.79,0,13.185,0c4.26,1.12,8.14,3.126,12.05,5.086c36.688,18.388,73.405,36.715,110.097,55.096
			c7.997,4.005,15.665,8.659,23.852,12.303c1.44,0.641,2.715,1.424,2.744,3.272c-0.118,63.445-0.003,126.877-0.053,190.309
			c-0.002,3.03,0.23,6.077-0.414,9.067c-1.699,4.202-4.587,2.386-7.082,1.186c-10.035-4.832-19.933-9.94-29.821-15.067
			c-34.761-18.025-69.997-35.107-104.953-52.744c-4.973-2.509-9.979-4.949-14.926-7.51
			C287.75,201.021,285.566,200.245,284.968,197.763z"/>
		<path fill-rule="evenodd" clip-rule="evenodd" fill="#0682FE" d="M917.837,1.014c0.022,65.896,0.045,131.792,0.066,197.688
			c1.436,2.129,0.228,3.451-1.44,4.587c-1.258,0.856-2.651,1.477-4.008,2.155c-47.973,24.001-95.971,47.949-143.934,71.968
			c-1.357,0.68-2.692,1.418-4.136,1.898c-3.022,1.004-5.369,0.587-6.106-3.055c-0.394-2.527-0.294-5.065-0.295-7.594
			c-0.008-60.613-0.01-121.225,0.008-181.837c0.001-3.192-0.311-6.431,0.861-9.512c1.173-2.468,3.525-3.517,5.776-4.664
			c45.419-23.142,90.949-46.065,136.549-68.846c2.439-1.218,5.099-1.655,7.53-2.789C911.752,1.014,914.794,1.014,917.837,1.014z"/>
		<path fill-rule="evenodd" clip-rule="evenodd" fill="#2691FE" d="M1871.133,198.732c0.012-65.906,0.025-131.812,0.038-197.718
			c3.719,0,7.437,0,11.155,0c4.255,1.114,8.123,3.131,12.026,5.084c37.692,18.862,75.431,37.635,113.04,56.663
			c7.471,3.779,15.255,7.136,21.991,12.289c0,67.95,0,135.9,0,203.851c-2.15,1.483-3.913-0.028-5.603-0.909
			c-49.188-25.656-99.152-49.767-148.638-74.829C1873.324,202.241,1870.854,201.662,1871.133,198.732z"/>
		<path fill-rule="evenodd" clip-rule="evenodd" fill="#0682FE" d="M445.274,277.792c-0.015-65.788-0.026-131.576-0.054-197.364
			c0-1.871-0.018-3.716,1.024-5.375c0.725-2.221,2.819-2.795,4.58-3.694c44.525-22.749,89.204-45.192,133.928-67.546
			c2.44-1.22,5.099-1.666,7.532-2.799c3.719,0,7.437,0,11.156,0c1.742,1.95,1.631,4.372,1.632,6.726
			c0.026,61.511,0.038,123.021-0.001,184.53c-0.002,1.859-0.048,3.722-0.693,5.491c-1.243,2.636-3.749,3.81-6.146,5.01
			c-49.229,24.669-98.488,49.277-147.747,73.884C448.884,277.455,447.291,278.71,445.274,277.792z"/>
		<path fill-rule="evenodd" clip-rule="evenodd" fill="#2691FE" d="M602.364,198.851c1.892-1.818,1.034-4.158,1.036-6.248
			c0.048-63.863,0.04-127.726,0.04-191.589c2.366,0,4.733,0,7.099,0c4.257,1.115,8.128,3.131,12.036,5.084
			c37.574,18.786,75.167,37.538,112.673,56.458c8.55,4.314,17.137,8.617,25.394,13.512c-1.38,2.146-1.006,4.557-1.007,6.897
			c-0.011,64.976-0.011,129.951-0.013,194.927c-2.806,1.623-4.844-0.554-6.955-1.608c-24.619-12.307-48.972-25.139-73.651-37.331
			c-23.923-11.818-47.77-23.791-71.597-35.8C605.462,202.166,602.701,201.852,602.364,198.851z"/>
		<path fill-rule="evenodd" clip-rule="evenodd" fill="#2691FE" d="M1872.174,550.72c1.968,0.011,3.484,1.205,5.122,2.023
			c43.775,21.893,87.55,43.785,131.293,65.744c6.915,3.472,13.454,7.693,20.795,10.308c0,67.273,0,134.549,0,201.822
			c-0.629,0.592-1.335,0.604-2.088,0.281c-1.731-1.95-4.083-2.932-6.333-4.089c-48.036-24.698-96.411-48.724-144.713-72.896
			c-2.594-1.298-6.021-2.063-5.626-6.198c-0.196-52.304-0.038-104.593-0.086-156.882c-0.011-10.964-0.031-21.928,0.019-32.893
			C1870.567,555.436,1870.312,552.83,1872.174,550.72z"/>
		<path fill-rule="evenodd" clip-rule="evenodd" fill="#0682FE" d="M2029.384,469.567c-9.878,5.09-19.706,10.278-29.641,15.253
			c-42.483,21.282-84.998,42.5-127.501,63.743c-1.822-1.909-1.683-4.338-1.684-6.684c-0.034-58.38-0.035-116.761-0.005-175.141
			c0.001-2.192,0.015-4.396,0.859-6.468c1.172-2.468,3.523-3.517,5.774-4.667c48.563-24.807,97.321-49.225,146.131-73.541
			c1.846-0.92,3.693-2.673,6.065-1.134C2029.384,343.809,2029.384,406.688,2029.384,469.567z"/>
		<path fill-rule="evenodd" clip-rule="evenodd" fill="#2691FE" d="M128.833,843.744c-8.135-2.85-15.529-7.264-23.185-11.103
			c-33.86-16.978-67.653-34.089-101.47-51.151c-1.053-0.53-2.109-1.056-3.164-1.582c0-67.613,0-135.225,0-202.837
			c2.221-0.873,3.913,0.558,5.656,1.427c33.351,16.632,66.7,33.269,99.978,50.043c6.918,3.487,13.632,7.39,20.666,10.669
			c1.545,0.72,3.144,1.389,3.178,3.502c-0.113,63.935,0.004,127.855-0.069,191.777C130.419,837.631,131.083,840.958,128.833,843.744
			z"/>
		<path fill-rule="evenodd" clip-rule="evenodd" fill="#64B0FE" d="M2029.384,280.929c-1.256,0.446-2.578,0.763-3.76,1.357
			c-50.816,25.564-101.62,51.154-152.425,76.739c-2.248,1.623-4.186,0.22-6.14-0.674c-7.226-3.304-14.006-7.464-21.099-11.016
			c-42.585-21.325-85.209-42.571-127.779-63.924c-2.207-1.106-4.862-1.716-5.973-4.371c1.188-1.836,3.297-2.229,5.052-3.113
			c49.17-24.725,98.358-49.41,147.546-74.097c2.099-1.053,4.217-2.066,6.326-3.098c0.967,2.058,3.078,2.527,4.851,3.414
			c44.505,22.298,89.024,44.569,133.532,66.861c6.615,3.313,12.777,7.533,19.868,9.894
			C2029.384,279.577,2029.384,280.253,2029.384,280.929z"/>
		<path fill-rule="evenodd" clip-rule="evenodd" fill="#64B0FE" d="M129.817,640.969c-5.985-0.917-10.811-4.513-16.026-7.123
			c-31.463-15.747-62.838-31.671-94.25-47.523c-6.163-3.109-12.351-6.169-18.528-9.251c0-11.156,0-22.313,0-33.469
			c1.652,0.194,2.884-0.85,4.21-1.515c39.067-19.589,78.123-39.201,117.171-58.827c1.5-0.753,2.909-1.69,4.36-2.541
			c1.693-0.695,2.896,0.496,4.199,1.154c42.508,21.449,85.298,42.338,127.625,64.146c7.955,4.099,16.007,8.005,23.9,12.218
			c1.855,0.991,4.972,1.618,3.031,5.058c-1.755,1.938-4.175,2.811-6.423,3.934c-32.72,16.347-65.493,32.59-98.106,49.148
			c-15.026,7.629-29.935,15.494-45.062,22.925C134.028,640.23,132.237,641.846,129.817,640.969z"/>
		<path fill-rule="evenodd" clip-rule="evenodd" fill="#2691FE" d="M1393.489,1015.199c0-60.131-0.002-120.26,0.012-180.389
			c0-2.02,0.156-4.039,0.24-6.058c2.182-0.626,3.936,0.537,5.726,1.429c44.064,21.937,88.07,43.991,132.057,66.082
			c6.92,3.476,13.629,7.388,20.658,10.667c1.532,0.714,3.175,1.335,3.229,3.456c-0.117,32.034,0.005,64.057-0.069,96.077
			c-0.007,2.98,0.563,6.128-1.61,8.735C1500.316,1015.199,1446.903,1015.199,1393.489,1015.199z"/>
		<path fill-rule="evenodd" clip-rule="evenodd" fill="#2691FE" d="M1871.171,1015.199c-53.075,0-106.152,0-159.228,0
			c-2.273-2.778-1.614-6.109-1.616-9.253c-0.04-54.522-0.029-109.046-0.022-163.568c0.001-3.377-0.014-6.751-0.381-10.099
			c-0.937-2.892,0.596-3.703,3.096-3.477c2.058,0.187,3.813,1.304,5.617,2.205c43.138,21.559,86.293,43.081,129.38,64.741
			c7.375,3.707,14.499,7.916,22.015,11.359c1.414,0.648,2.754,1.365,2.815,3.218c-0.107,32.052,0.006,64.092-0.065,96.133
			C1872.774,1009.44,1873.344,1012.59,1871.171,1015.199z"/>
		<path fill-rule="evenodd" clip-rule="evenodd" fill="#0682FE" d="M1709.91,830.614c3.36,0.8,1.969,3.542,1.972,5.421
			c0.076,52.467,0.062,104.934,0.062,157.4c0,7.255,0,14.51,0,21.764c-52.737,0-105.475,0-158.213,0
			c0.002-33.368,0.003-66.736,0.006-100.104c0.001-2.179-0.266-4.403,1.011-6.382c0.727-2.22,2.82-2.797,4.581-3.696
			c48.005-24.541,96.203-48.695,144.463-72.727C1705.683,831.349,1707.482,829.739,1709.91,830.614z"/>
		<path fill-rule="evenodd" clip-rule="evenodd" fill="#0682FE" d="M1871.171,1015.199c0.002-33.368,0.003-66.736,0.006-100.104
			c0.001-2.179-0.267-4.403,1.01-6.382c0.727-2.221,2.821-2.797,4.582-3.696c48.003-24.54,96.202-48.695,144.462-72.727
			c1.891-0.941,3.692-2.551,6.119-1.677c0.678,0.002,1.356,0.003,2.034,0.004c0,60.175-0.038,120.351,0.098,180.524
			c0.008,3.474-0.682,4.166-4.155,4.156C1973.941,1015.154,1922.557,1015.199,1871.171,1015.199z"/>
		<path fill-rule="evenodd" clip-rule="evenodd" fill="#2691FE" d="M127.782,845.824c1.799-1.838,3.13,0.081,4.425,0.727
			c44.934,22.418,89.841,44.887,134.734,67.386c6.019,3.017,11.934,6.242,17.903,9.356c1.637,0.855,3.235,1.862,5.213,1.647
			c0.811,1.396,0.671,2.935,0.665,4.45c-0.099,26.021,0.002,52.043-0.061,78.065c-0.006,2.67,0.353,5.463-1.62,7.743
			c-53.414,0-106.828,0-160.241,0c-1.617-1.791-1.622-4.022-1.625-6.22c-0.058-52.716-0.008-105.43-0.046-158.146
			C127.13,849.122,127.467,847.481,127.782,845.824z"/>
		<path fill-rule="evenodd" clip-rule="evenodd" fill="#2691FE" d="M763.681,1015.199c0-54.045-0.002-108.089,0.011-162.135
			c0.001-2.018,0.158-4.037,0.241-6.056c2.189-0.628,3.945,0.543,5.739,1.436c44.027,21.917,87.996,43.952,131.945,66.025
			c7.089,3.56,13.96,7.567,21.171,10.907c1.415,0.655,2.76,1.364,2.808,3.228c-0.119,26.13,0.003,52.248-0.068,78.365
			c-0.008,2.82,0.463,5.788-1.605,8.229C870.508,1015.199,817.095,1015.199,763.681,1015.199z"/>
		<path fill-rule="evenodd" clip-rule="evenodd" fill="#0682FE" d="M289.042,1015.199c0.001-27.961,0.002-55.921,0.005-83.882
			c0-2.177-0.264-4.4,1.011-6.377c50.367-25.363,100.738-50.722,151.091-76.112c1.775-0.895,3.842-1.372,5.117-3.114
			c1.87,1.616,0.939,3.779,0.941,5.657c0.059,54.609,0.048,109.218,0.048,163.828
			C394.518,1015.199,341.78,1015.199,289.042,1015.199z"/>
		<path fill-rule="evenodd" clip-rule="evenodd" fill="#0682FE" d="M923.922,1015.199c0.001-27.284,0.001-54.569,0.004-81.854
			c0-2.178-0.264-4.4,1.013-6.377c0.723-2.217,2.812-2.791,4.569-3.689c48.338-24.709,96.875-49.023,145.457-73.246
			c1.792-0.894,3.523-2.049,5.677-1.906c0.519,0.105,0.956,0.355,1.315,0.744c0.059,13.984,0.162,27.968,0.17,41.951
			c0.022,41.459,0.008,82.918,0.008,124.377C1029.397,1015.199,976.66,1015.199,923.922,1015.199z"/>
		<path fill-rule="evenodd" clip-rule="evenodd" fill="#0682FE" d="M127.782,845.824c1.772,1.664,0.981,3.826,0.983,5.752
			c0.045,54.541,0.036,109.081,0.036,163.623c-41.322,0-82.646-0.039-123.967,0.077c-3.104,0.008-3.92-0.625-3.907-3.849
			c0.142-33.901,0.087-67.803,0.087-101.704C43.27,888.424,85.526,867.124,127.782,845.824z"/>
		<path fill-rule="evenodd" clip-rule="evenodd" fill="#64B0FE" d="M760.642,76.068c-6.142-1.013-11.144-4.661-16.521-7.351
			c-30.028-15.021-59.955-30.246-89.934-45.366c-13.561-6.84-27.168-13.588-40.739-20.41c-1.032-0.518-1.942-1.278-2.909-1.927
			c99.39,0,198.78,0,298.17,0c-1.721,1.023-3.388,2.155-5.172,3.054C855.913,28.083,808.275,52.074,760.642,76.068z"/>
		<path fill-rule="evenodd" clip-rule="evenodd" fill="#64B0FE" d="M592.284,1.014c-1.36,1.627-3.387,2.15-5.167,3.047
			c-46.949,23.682-93.912,47.335-140.874,70.992c-5.988-0.918-10.818-4.518-16.038-7.128
			c-30.888-15.453-61.715-31.027-92.507-46.669c-13.197-6.705-26.719-12.778-39.528-20.242
			C396.208,1.014,494.246,1.014,592.284,1.014z"/>
		<path fill-rule="evenodd" clip-rule="evenodd" fill="#64B0FE" d="M2029.384,75.05c-7.495-2.655-14.155-6.986-21.21-10.527
			c-40.213-20.181-80.457-40.297-120.68-60.46c-1.783-0.894-3.447-2.027-5.168-3.048c47.727,0,95.453,0.027,143.179-0.064
			c2.959-0.006,4.005,0.403,3.979,3.776C2029.294,28.167,2029.384,51.608,2029.384,75.05z"/>
		<path fill-rule="evenodd" clip-rule="evenodd" fill="#2691FE" d="M284.98,562.869c1.366-3.103-1.697-2.81-2.939-3.439
			c-36.558-18.543-73.196-36.927-109.752-55.473c-15.195-7.71-30.736-14.748-45.534-23.237
			c0.006-65.538,0.009-131.075,0.028-196.612c0-2.019,0.157-4.038,0.24-6.057c2.183-0.626,3.937,0.538,5.728,1.429
			c44.076,21.943,88.095,44.001,132.092,66.102c6.921,3.476,13.632,7.387,20.665,10.666c1.542,0.718,3.154,1.371,3.192,3.488
			c-0.118,65.043-0.013,130.074-0.029,195.104c-0.001,2.372-0.059,4.724-0.601,7.042c-0.337,0.334-0.674,0.668-1.011,1.003
			C286.362,563.483,285.67,563.419,284.98,562.869z"/>
		<path fill-rule="evenodd" clip-rule="evenodd" fill="#2691FE" d="M605.511,562.896c-0.855,1.321-1.618,0.406-2.494-0.035
			c-51.206-25.805-102.421-51.592-153.632-77.384c-1.953-0.983-3.837-2.178-6.186-1.712c0.875-65.196,0.142-130.394,0.391-195.591
			c0.009-2.192-0.09-4.397,0.43-6.545c0.666-2.387,2.311-2.617,4.35-1.913c1.603,0.554,3.088,1.368,4.599,2.125
			c42.601,21.362,85.27,42.588,127.854,63.982c7.543,3.79,14.813,8.123,22.518,11.611c1.425,0.646,2.742,1.39,2.795,3.243
			c-0.105,65.236-0.013,130.458-0.021,195.682C606.115,558.566,605.987,560.742,605.511,562.896z"/>
		<path fill-rule="evenodd" clip-rule="evenodd" fill="#2691FE" d="M921,766.682c-0.041-51.04-0.097-102.081-0.11-153.121
			c-0.004-16.221,0.11-32.441,0.17-48.663c0.363-0.389,0.807-0.633,1.328-0.736c2.333-0.13,4.192,1.16,6.132,2.13
			c43.182,21.573,86.363,43.149,129.505,64.803c7.384,3.707,14.512,7.926,22.041,11.362c1.433,0.655,2.711,1.428,2.74,3.274
			c-0.119,63.44-0.004,126.867-0.054,190.294c-0.003,3.03,0.227,6.077-0.416,9.066c-1.631,4.185-4.379,2-6.613,0.927
			c-9.885-4.749-19.622-9.799-29.358-14.845c-36.405-18.867-73.307-36.744-109.908-55.218c-3.465-1.749-6.957-3.442-10.402-5.229
			C924.108,769.717,922.124,768.732,921,766.682z"/>
		<path fill-rule="evenodd" clip-rule="evenodd" fill="#2691FE" d="M922.014,564.85c-0.318,0.021-0.635,0.036-0.953,0.048
			c-0.869-2.376-3.187-2.894-5.095-3.856c-51.088-25.759-102.19-51.49-153.29-77.226c-2.406-2.738-1.616-6.095-1.618-9.215
			c-0.052-60.629-0.04-121.258-0.033-181.889c0.001-3.378-0.015-6.754-0.377-10.103c-0.692-2.035-0.297-3.259,2.208-3.17
			c2.127,0.075,3.88,1.091,5.683,1.993c43.21,21.605,86.458,43.134,129.61,64.852c7.235,3.641,14.238,7.749,21.606,11.145
			c1.417,0.654,2.749,1.38,2.803,3.235c-0.03,67.127-0.166,134.243,0.09,201.359C922.797,563.045,922.664,564.006,922.014,564.85z"
			/>
		<path fill-rule="evenodd" clip-rule="evenodd" fill="#0682FE" d="M760.634,280.925c3.363,0.802,1.967,3.544,1.97,5.424
			c0.079,46.75,0.062,93.5,0.063,140.25c0.001,19.072,0.007,38.144,0.01,57.215c-24.965,12.619-49.912,25.274-74.901,37.847
			c-27.4,13.786-54.841,27.493-82.265,41.234c-1.702-1.471-1.025-3.461-1.026-5.229c-0.034-64.254-0.028-128.508-0.033-192.763
			c0-2.024-0.146-4.063,1.019-5.88c0.726-2.221,2.82-2.797,4.581-3.697c48.004-24.541,96.202-48.696,144.463-72.726
			C756.405,281.66,758.207,280.051,760.634,280.925z"/>
		<path fill-rule="evenodd" clip-rule="evenodd" fill="#0682FE" d="M445.226,279.917c0,65.663,0.002,131.325-0.005,196.988
			c0,2.472,0.542,5.131-2.022,6.86c-22.426,11.369-44.825,22.791-67.285,34.093c-29.256,14.724-58.561,29.354-87.843,44.023
			c-1.689-1.475-1.024-3.461-1.025-5.232c-0.033-64.253-0.026-128.506-0.032-192.758c0-2.024-0.147-4.063,1.018-5.88
			c0.725-2.218,2.813-2.798,4.572-3.697c48.394-24.738,96.968-49.12,145.649-73.285
			C440.378,279.975,442.535,277.932,445.226,279.917z"/>
		<path fill-rule="evenodd" clip-rule="evenodd" fill="#0682FE" d="M284.98,562.869c0.693,0.005,1.386,0.01,2.079,0.016
			c-0.021,67.271-0.042,134.541-0.062,201.813c-9.575,4.942-19.104,9.978-28.733,14.813
			c-41.265,20.724-82.557,41.396-123.856,62.052c-1.776,0.888-3.414,2.238-5.576,2.182c-0.009-65.8-0.016-131.6-0.038-197.399
			c0-1.871-0.017-3.716,1.023-5.376C181.538,614.936,233.259,588.902,284.98,562.869z"/>
		<path fill-rule="evenodd" clip-rule="evenodd" fill="#64B0FE" d="M921,766.682c41.287,20.806,82.533,41.691,123.885,62.369
			c12.033,6.017,23.714,12.769,36.24,17.786c0.607,0.716,0.639,1.379-0.177,1.966c-10.442,5.105-20.937,10.11-31.319,15.332
			c-41.583,20.907-83.131,41.884-124.69,62.834c-6.134-1.009-11.184-4.562-16.488-7.353c-29.822-15.692-60.197-30.281-90.263-45.487
			c-18.042-9.125-36.168-18.086-54.256-27.12c3.904-3.298,8.717-4.964,13.186-7.215c46.445-23.383,92.933-46.682,139.394-70.033
			C918.127,768.949,920.09,768.558,921,766.682z"/>
		<path fill-rule="evenodd" clip-rule="evenodd" fill="#64B0FE" d="M445.226,279.917c-1.983-0.257-3.586,0.744-5.241,1.577
			C389.334,307,338.682,332.506,288.031,358.011c-6.133-1.008-11.183-4.563-16.486-7.353
			c-29.823-15.692-60.199-30.281-90.264-45.487c-18.042-9.125-36.167-18.086-54.256-27.121c4.079-3.339,9.025-5.113,13.649-7.44
			c46.478-23.389,92.992-46.703,139.486-70.057c1.653-0.831,3.208-1.856,4.809-2.791c4.449,2.383,8.845,4.869,13.355,7.131
			c34.505,17.306,69.048,34.537,103.546,51.857c12.622,6.338,25.15,12.86,37.731,19.278c1.782,0.91,3.48,2.151,5.674,1.764
			c47.592-23.794,95.188-47.579,142.769-71.395c4.824-2.416,9.55-5.028,14.321-7.549c1.592,0.931,3.138,1.953,4.783,2.777
			c37.277,18.673,74.578,37.299,111.844,55.997c12.036,6.04,23.976,12.273,35.979,18.379c1.486,0.755,3.098,1.265,4.651,1.889
			c1.891,1.998,3.725,0.732,5.502-0.158c49.913-24.988,99.816-49.996,149.735-74.972c1.761-0.881,3.265-1.777,3.045-4.06
			c42.682,21.481,85.363,42.962,128.044,64.445c9.651,4.858,19.336,9.653,28.928,14.628c2.536,1.314,4.615,1.155,7.112-0.102
			c50.234-25.293,100.519-50.486,150.722-75.84c2.738-1.382,4.608-1.203,7.219,0.116c49.888,25.214,99.84,50.297,149.734,75.497
			c2.843,1.436,5.13,1.558,8.029,0.097c50.378-25.382,100.809-50.658,151.206-76.001c1.683-0.846,2.791-1.475,4.933-0.39
			c51.072,25.862,102.225,51.569,153.354,77.318c1.345,0.678,2.606,1.521,3.907,2.285c-0.075,0.81-0.464,1.46-1.021,2.025
			c-1.922,1.703-4.29,2.647-6.544,3.774c-31.958,15.981-63.985,31.825-95.852,47.984c-15.631,7.926-31.114,16.143-46.846,23.869
			c-1.961,0.964-3.844,2.123-6.027,2.572c-6.227-0.187-11.052-3.978-16.172-6.7c-24.891-13.233-50.327-25.376-75.472-38.1
			c-20.027-10.135-40.15-20.081-60.229-30.116c-2.104-1.051-4.128-2.325-6.528-2.646c-2.478-0.004-4.527,1.238-6.635,2.293
			c-33.969,17.005-68.03,33.833-101.884,51.067c-14.141,7.198-28.232,14.496-42.419,21.607c-1.956,0.981-3.85,2.126-6.033,2.588
			c-6.401-0.208-11.37-4.096-16.628-6.915c-20.985-11.256-42.474-21.497-63.729-32.206c-25.027-12.611-50.115-25.106-75.21-37.581
			c-2.049-1.018-3.961-2.742-6.572-2.011c-49.612,24.584-99.031,49.542-148.384,74.63c-2.163,1.099-4.197,3.012-7.011,2.134
			c-5.999-0.922-10.839-4.528-16.069-7.144c-29.288-14.649-58.472-29.505-87.717-44.241c-17.339-8.737-34.711-17.411-52.111-26.028
			c-1.603-0.793-3.274-2.938-5.364-0.687c-51.721,26.034-103.443,52.067-155.163,78.1c-6.135-1.008-11.128-4.653-16.499-7.339
			c-29.983-15.003-59.863-30.214-89.802-45.308c-16.251-8.193-32.544-16.305-48.833-24.424
			C448.698,281.139,447.183,279.957,445.226,279.917z"/>
		<path fill-rule="evenodd" clip-rule="evenodd" fill="#2691FE" d="M1709.909,281.939c0.395-0.395,0.787-0.789,1.182-1.183
			c0.373-0.572,0.746-1.144,1.118-1.716c45.961,22.989,91.929,45.966,137.876,68.982c6.02,3.015,11.933,6.24,17.902,9.355
			c1.636,0.854,3.233,1.861,5.212,1.647c-1.038,1.66-1.021,3.504-1.02,5.375c0.029,61.388,0.045,122.777,0.062,184.164
			c-2.178,0.107-3.821-1.258-5.599-2.145c-37.181-18.568-74.356-37.142-111.491-55.8c-14.47-7.27-28.833-14.752-43.244-22.138
			c-2.356-2.76-1.572-6.112-1.575-9.234c-0.052-55.055-0.039-110.109-0.03-165.165
			C1710.303,290.029,1710.227,285.981,1709.909,281.939z"/>
		<path fill-rule="evenodd" clip-rule="evenodd" fill="#2691FE" d="M1396.514,281.976c1.974-0.016,3.489,1.188,5.125,2.005
			c43.174,21.589,86.342,43.192,129.491,64.829c6.179,3.098,12.261,6.389,18.395,9.579c1.641,0.853,3.239,1.866,5.221,1.651
			c0.891,1.558,0.673,3.269,0.671,4.944c-0.077,57.833,0.002,115.668-0.055,173.501c-0.003,3.149,0.599,6.467-1.621,9.255
			c1.026,2.013,3.154,2.452,4.923,3.339c43.623,21.871,87.268,43.697,130.89,65.571c6.785,3.401,13.473,7,20.21,10.497
			c1.642,0.852,3.24,1.867,5.224,1.652c0.892,1.561,0.665,3.273,0.663,4.951c-0.076,60.614-0.006,121.227-0.039,181.84
			c-0.002,3.034,0.188,6.081-0.342,9.084c-2.392,4.575-4.706,5.515-9.292,3.336c-8.994-4.274-17.849-8.836-26.682-13.43
			c-39.837-20.71-80.242-40.29-120.28-60.6c-2.051-1.039-5.139-1.215-5.333-4.563c0.017-60.169,0.004-120.336,0.125-180.505
			c0.008-3.423-1.25-5.048-4.192-6.522c-49.822-24.966-99.592-50.038-149.361-75.109c-1.832-0.923-3.606-1.857-5.749-1.486
			c0.858-65.189,0.135-130.381,0.4-195.572C1394.915,287.398,1394.427,284.42,1396.514,281.976z"/>
		<path fill-rule="evenodd" clip-rule="evenodd" fill="#64B0FE" d="M1553.682,749.418c1.338,1.661,3.372,2.191,5.156,3.086
			c36.518,18.306,73.065,36.55,109.574,54.874c12.64,6.344,25.247,12.756,37.733,19.394c2.956,1.57,5.299,1.61,7.861-0.272
			c0.988-1.939,2.833-2.799,4.648-3.708c49.136-24.599,98.35-49.042,147.407-73.798c1.762-0.89,3.667-2.244,5.009,0.613
			c18.942,9.585,37.879,19.179,56.826,28.752c32.173,16.255,64.36,32.48,96.494,48.813c1.251,0.636,4.283,0.355,2.958,3.441
			c-51.721,26.034-103.441,52.067-155.163,78.1c-6-0.922-10.84-4.527-16.069-7.144c-29.29-14.65-58.477-29.507-87.724-44.245
			c-17.342-8.738-34.718-17.407-52.11-26.041c-1.963-0.975-3.984-3.058-6.373-0.669c-51.721,26.033-103.441,52.066-155.163,78.099
			c-6.133-1.008-11.183-4.563-16.486-7.353c-29.823-15.692-60.198-30.281-90.264-45.486c-18.042-9.125-36.168-18.086-54.256-27.121
			c3.905-3.3,8.721-4.966,13.191-7.217c47.519-23.931,95.086-47.769,142.593-71.722
			C1551.036,749.053,1552.212,748.716,1553.682,749.418z"/>
		<path fill-rule="evenodd" clip-rule="evenodd" fill="#0682FE" d="M1080.949,848.803c0.059-0.655,0.117-1.31,0.177-1.966
			c0-65.31-0.002-130.619,0.008-195.93c0-2.339-0.377-4.75,1.003-6.896c0.725-2.217,2.813-2.797,4.572-3.696
			c48.228-24.677,96.666-48.937,145.173-73.062c2.008-0.998,3.963-2.856,6.561-1.449c1.678,1.304,0.848,3.138,0.85,4.697
			c0.049,64.71,0.012,129.42,0.125,194.13c0.006,3.374-1.035,4.961-4.045,6.467c-49.669,24.834-99.267,49.81-148.861,74.792
			c-1.607,0.809-3.587,1.152-4.554,2.981C1081.62,848.865,1081.284,848.843,1080.949,848.803z"/>
		<path fill-rule="evenodd" clip-rule="evenodd" fill="#0682FE" d="M1396.514,281.976c0.007,65.99,0.007,131.981,0.042,197.972
			c0.001,2.248,0.058,4.395-2.052,5.847c-23.476,11.893-46.934,23.82-70.432,35.67c-26.976,13.605-53.988,27.139-80.975,40.726
			c-1.641,0.826-3.183,1.851-4.771,2.783c-0.508-0.472-0.871-1.037-1.095-1.691c-0.627-2.14-0.559-4.343-0.561-6.536
			c-0.011-62.492-0.021-124.983,0.036-187.473c0.003-3.245-0.893-6.915,2.626-9.234c50.646-25.502,101.293-51.005,151.94-76.508
			C1392.926,282.699,1394.525,281.683,1396.514,281.976z"/>
		<path fill-rule="evenodd" clip-rule="evenodd" fill="#64B0FE" d="M1238.216,563.992c0.052,0.325,0.09,0.653,0.111,0.982
			c-0.005,0.282,0.034,0.559,0.115,0.829c-1.26,0.464-2.579,0.81-3.771,1.409c-50.852,25.585-101.693,51.193-152.535,76.798
			c-6.146-1.015-11.15-4.665-16.534-7.357c-30.052-15.032-60-30.272-90.006-45.396c-16.289-8.211-32.619-16.339-48.942-24.477
			c-1.497-0.745-3.093-1.291-4.641-1.931c-0.058-0.679-0.117-1.357-0.175-2.035c0.702-1.993,2.573-2.591,4.198-3.414
			c48.84-24.752,97.674-49.518,146.71-73.881c1.36-0.675,2.713-1.382,4.218-1.711c2.657-0.534,4.975,0.474,7.262,1.616
			c44.844,22.398,89.698,44.776,134.48,67.3c5.569,2.801,10.896,6.095,16.618,8.613
			C1236.605,561.9,1237.694,562.625,1238.216,563.992z"/>
		<path fill-rule="evenodd" clip-rule="evenodd" fill="#0682FE" d="M1871.071,749.606c-1.688-1.468-2.937-0.267-4.478,0.507
			c-50.844,25.5-101.719,50.939-152.588,76.387c-0.009-64.108-0.017-128.217-0.04-192.324c0-1.871-0.019-3.718,1.021-5.377
			c50.649-25.505,101.299-51.009,151.948-76.513c1.653-0.832,3.256-1.842,5.24-1.566c0.003,64.385,0.013,128.771-0.022,193.156
			C1872.151,745.809,1872.904,747.979,1871.071,749.606z"/>
		<path fill-rule="evenodd" clip-rule="evenodd" fill="#0682FE" d="M1553.74,547.739c-0.001-60.436-0.004-120.872-0.003-181.307
			c0-2.182-0.269-4.41,1.008-6.393c51.722-26.033,103.442-52.067,155.164-78.1c3.359,0.799,1.97,3.54,1.973,5.418
			c0.076,52.448,0.063,104.898,0.06,157.346c0,7.926-0.021,15.853-0.034,23.779c-23.147,11.727-46.271,23.499-69.445,35.17
			c-28.152,14.18-56.346,28.28-84.532,42.393C1556.588,546.719,1555.141,547.18,1553.74,547.739z"/>
		<path fill-rule="evenodd" clip-rule="evenodd" fill="#0682FE" d="M1077.04,484.683c-51.734,26.044-103.468,52.088-155.203,78.131
			c-1.613-1.525-0.924-3.506-0.925-5.278c-0.036-64.037-0.03-128.075-0.028-192.112c0-2.185-0.268-4.415,1.011-6.399
			c51.722-26.034,103.444-52.068,155.167-78.102c1.875-0.013,2.042,1.502,2.348,2.766c0.399,1.646,0.32,3.354,0.32,5.04
			c0.01,62.428,0.022,124.857-0.038,187.286C1079.688,479.085,1080.518,482.594,1077.04,484.683z"/>
		<path fill-rule="evenodd" clip-rule="evenodd" fill="#2691FE" d="M1077.04,484.683c1.265-1.795,1.038-3.854,1.038-5.873
			c0-64.212,0.006-128.424-0.029-192.636c-0.001-1.77,0.692-3.761-0.987-5.251c1.809-1.723,3.155,0.09,4.48,0.751
			c45.043,22.481,90.064,45.006,135.069,67.563c5.883,2.948,11.662,6.102,17.497,9.147c1.641,0.856,3.242,1.869,5.226,1.654
			c-1.378,2.148-1.002,4.561-1.002,6.901c-0.01,63.49-0.007,126.979-0.013,190.468c0,2.195-0.067,4.389-0.103,6.583
			c-40.8-20.448-81.596-40.9-122.394-61.349c-10.696-5.36-21.409-10.681-32.084-16.082
			C1081.604,485.48,1079.502,484.496,1077.04,484.683z"/>
	</g>
</g>
</svg>
