<?xml version="1.0" encoding="utf-8"?>
<!-- Generator: Adobe Illustrator 16.0.3, SVG Export Plug-In . SVG Version: 6.00 Build 0)  -->
<!DOCTYPE svg PUBLIC "-//W3C//DTD SVG 1.1//EN" "http://www.w3.org/Graphics/SVG/1.1/DTD/svg11.dtd">
<svg version="1.1" id="Layer_1" xmlns="http://www.w3.org/2000/svg" xmlns:xlink="http://www.w3.org/1999/xlink" x="0px" y="0px"
	 width="2028.369px" height="1014.185px" viewBox="0 0 2028.369 1014.185" enable-background="new 0 0 2028.369 1014.185"
	 xml:space="preserve">
<g>
	<g>
		<path fill-rule="evenodd" clip-rule="evenodd" fill="#FEFEFE" d="M855.972,1.014c236.643,0,473.286,0,709.93,0
			c1.344,1.477,1.577,3.312,1.581,5.18c0.05,23.699,0.164,47.396-0.057,71.095c-0.006,0.671-0.132,1.337-0.262,1.983
			c-0.633,2.812-3.02,3.914-5.2,5.165c-55.521,31.858-110.849,64.049-166.336,95.966c-1.457,0.838-2.836,1.863-4.575,2.107
			c-1.985,0.222-3.594-0.73-5.21-1.663c-38.786-22.371-77.562-44.757-116.336-67.147c-16.973-9.801-33.962-19.576-50.909-29.418
			c-3.362-1.951-6.014-1.85-9.344,0.071c-38.345,22.119-76.656,44.298-114.995,66.429c-16.974,9.799-33.871,19.736-50.991,29.271
			c-4.99,2.779-6.549,6.179-6.533,11.752c0.181,62.358,0.119,124.717,0.097,187.076c-0.001,2.682,0.39,5.419-0.676,8.019
			c-26.16,13.68-51.314,29.143-76.931,43.792c-34.315,19.622-68.417,39.615-102.77,59.178c-2.339,0.939-4.236-0.16-6.172-1.277
			c-48.096-27.771-96.187-55.555-144.295-83.305c-8.189-4.724-16.345-9.507-24.549-14.204c-2.845-1.627-5.056-1.651-7.922,0.003
			c-29.972,17.3-59.918,34.643-89.891,51.94c-27.632,15.946-55.231,31.949-82.922,47.8c-0.93,0.415-1.884,0.737-2.919,0.724
			c-7.891-3.103-14.84-7.959-22.127-12.154c-50.189-28.891-100.267-57.977-150.5-86.792c-1.464-0.84-2.933-1.68-4.239-2.775
			c-0.609-0.574-1.063-1.246-1.352-2.034c-0.64-2.149-0.448-4.359-0.448-6.546c-0.013-62.989,0.065-125.979-0.127-188.969
			c-0.02-6.214,2.095-9.821,7.461-12.887c46.912-26.81,93.641-53.938,140.44-80.944c10.08-5.818,20.007-11.917,30.407-17.177
			c0.816-0.2,1.643-0.241,2.472-0.142c8.413,3.576,15.985,8.702,23.874,13.232c49.655,28.516,99.184,57.251,148.77,85.887
			c3.712,2.143,6.504,2.073,10.189-0.054c40.812-23.562,81.596-47.173,122.414-70.723c14.63-8.441,29.202-16.989,43.938-25.243
			c4.18-2.341,5.871-5.149,5.817-10.043c-0.248-22.13-0.124-44.264-0.086-66.396C854.69,5.481,854.179,3.013,855.972,1.014z"/>
		<path fill-rule="evenodd" clip-rule="evenodd" fill="#FEFEFE" d="M1412.759,1015.199c-369.501,0-739.002,0-1108.503,0
			c0.677-3.84,4.238-4.697,6.911-5.976c5.955-2.848,7.881-7.021,7.855-13.646c-0.242-61.96-0.149-123.92-0.127-185.881
			c0.001-3.186-0.374-6.435,0.976-9.48c0.938-1.702,2.575-2.629,4.18-3.546c36.178-20.684,72.195-41.646,108.302-62.453
			c21.633-12.466,43.232-24.991,64.884-37.431c0.932-0.417,1.888-0.74,2.925-0.73c8.316,3.394,15.708,8.488,23.445,12.932
			c49.801,28.604,99.463,57.449,149.213,86.144c3.359,1.938,5.85,2.019,9.243,0.056c38.451-22.249,76.927-44.455,115.377-66.707
			c18.274-10.575,36.644-20.985,54.842-31.694c1.165-0.686,2.363-1.319,3.725-1.55c6.185,1.554,11.079,5.614,16.451,8.688
			c52.325,29.935,104.417,60.272,156.649,90.367c3.232,1.861,5.624,1.756,8.797-0.07c43.462-25.022,86.829-50.207,130.278-75.254
			c13.02-7.506,26.114-14.883,39.024-22.576c1.165-0.693,2.348-1.346,3.727-1.521c6.25,0.952,10.868,5.229,16.057,8.207
			c52.66,30.219,105.17,60.699,157.815,90.944c1.89,1.085,3.901,2.052,5.137,4.016c1.461,3.045,1.062,6.303,1.063,9.489
			c0.023,61.015,0.157,122.03-0.165,183.044c-0.038,7.484,2.106,12.139,8.839,15.118c3.375,1.495,6.558,3.505,9.674,5.534
			C1410.846,1012.196,1412.815,1012.857,1412.759,1015.199z"/>
		<path fill-rule="evenodd" clip-rule="evenodd" fill="#FEFEFE" d="M1922.895,1.014c34.145,0,68.289,0.066,102.432-0.101
			c3.476-0.017,4.156,0.686,4.153,4.158c-0.112,141.31-0.096,282.62-0.096,423.929c-2.8,4.417-7.759,5.814-11.904,8.223
			c-28.82,16.751-57.725,33.355-86.6,50.01c-2.158,1.245-4.183,2.952-6.962,2.546c-11.807-5.813-22.954-12.809-34.348-19.362
			c-46.077-26.498-92.035-53.203-138.138-79.658c-2.042-1.172-4.203-2.174-5.965-3.824c-1.743-2.155-1.674-4.739-1.675-7.263
			c-0.041-63.206-0.034-126.414-0.011-189.621c0.001-1.689,0.017-3.383,0.453-5.024c0.917-2.884,3.535-3.92,5.847-5.25
			c54.697-31.475,109.233-63.227,164.042-94.504c5.516-3.148,7.708-6.721,7.579-13.196c-0.425-21.424-0.174-42.862-0.142-64.295
			C1921.564,5.464,1921.12,3.007,1922.895,1.014z"/>
		<path fill-rule="evenodd" clip-rule="evenodd" fill="#2691FE" d="M320.616,388.367c0.355,0.328,0.712,0.656,1.068,0.982
			c-6.527,4.837-13.856,8.335-20.851,12.377c-49.438,28.566-98.792,57.28-148.417,85.52c-5.839,3.323-8.18,7.057-8.149,13.952
			c0.277,62.343,0.17,124.687,0.137,187.03c-0.001,2.823,0.579,5.773-1.094,8.403c-0.515,0.398-1.046,0.419-1.593,0.067
			c-1.683-2.431-1.156-5.216-1.158-7.872c-0.031-62.188-0.128-124.375,0.123-186.561c0.028-6.976-2.144-10.878-8.292-14.374
			c-41.861-23.8-83.458-48.064-125.193-72.085c-2.324-1.338-4.841-2.499-6.183-5.062c0-83.163,0-166.326,0-249.489
			c3.706-4.681,9.317-6.561,14.213-9.399c38.516-22.326,77.074-44.582,115.655-66.796c3.421-1.97,6.522-4.953,10.958-4.673
			c10.872,5.104,20.971,11.592,31.343,17.572c47.108,27.161,94.17,54.404,141.331,81.476c3.948,2.266,5.595,4.72,5.58,9.539
			c-0.2,64.688-0.142,129.376-0.094,194.064C320.001,384.802,319.261,386.73,320.616,388.367z"/>
		<path fill-rule="evenodd" clip-rule="evenodd" fill="#64B0FE" d="M1412.759,1015.199c-6.365-3.78-12.617-7.77-19.142-11.251
			c-3.33-1.776-4.188-3.967-4.183-7.589c0.114-64.276,0.088-128.552,0.065-192.829c0-2.125,0.593-4.426-1.265-6.196
			c0.458-3.712,3.831-4.524,6.31-5.979c21.971-12.891,44.088-25.527,66.145-38.27c31.988-18.481,63.977-36.963,95.979-55.419
			c3.213-1.854,6.432-3.699,9.701-5.461c0.483-0.188,0.984-0.28,1.5-0.3c0.516,0.002,1.016,0.096,1.502,0.26
			c31.152,17.668,62.095,35.709,93.105,53.63c26.332,15.217,52.716,30.343,79.005,45.634c2.97,1.727,6.662,3.05,6.665,7.532
			c-0.315,63.373-0.033,126.735-0.128,190.097c-0.004,2.534-0.068,5.071-0.014,7.603c0.079,3.733-1.378,6.449-4.666,8.331
			c-6.569,3.76-12.722,8.331-20.239,10.208C1619.652,1015.199,1516.206,1015.199,1412.759,1015.199z"/>
		<path fill-rule="evenodd" clip-rule="evenodd" fill="#64B0FE" d="M142.028,696.747c0.32-0.013,0.641-0.008,0.96,0.017
			c6.324,1.219,11.104,5.503,16.443,8.566c52.948,30.374,105.712,61.068,158.673,91.423c1.288,0.738,2.85,1.15,3.598,2.644
			c-1.883,1.758-1.288,4.063-1.289,6.19c-0.02,64.902-0.057,129.806,0.082,194.707c0.008,3.912-1.036,6.181-4.548,7.917
			c-4.057,2.008-7.809,4.632-11.693,6.988c-99.635,0-199.27-0.023-298.904,0.092c-3.57,0.004-4.45-0.628-4.443-4.368
			c0.141-77.681,0.106-155.362,0.106-233.043c3.255-4.424,8.434-6.059,12.894-8.634c41.019-23.676,81.945-47.514,123.057-71.027
			C138.509,697.335,139.935,695.828,142.028,696.747z"/>
		<path fill-rule="evenodd" clip-rule="evenodd" fill="#FEFEFE" d="M1723.1,1015.199c6.364-3.779,12.617-7.767,19.14-11.248
			c3.327-1.775,4.191-3.962,4.186-7.586c-0.114-64.267-0.087-128.532-0.065-192.798c0-2.123-0.6-4.423,1.267-6.186
			c0.652-1.959,2.398-2.753,3.99-3.669c55.434-31.854,110.743-63.923,166.136-95.848c1.599-0.921,3.115-2.062,5.078-2.127
			c1.767-0.021,3.257,0.764,4.727,1.619c32.398,18.853,64.892,37.542,97.403,56.197c1.78,1.021,3.408,2.191,4.424,4.041
			c0,84.516-0.028,169.031,0.097,253.546c0.006,3.473-0.682,4.158-4.154,4.154C1924.585,1015.176,1823.842,1015.199,1723.1,1015.199
			z"/>
		<path fill-rule="evenodd" clip-rule="evenodd" fill="#64B0FE" d="M320.616,388.367c-2.033-1.767-1.058-4.13-1.06-6.193
			c-0.057-64.053-0.1-128.106,0.066-192.159c0.012-4.526-1.44-6.91-5.29-9.112c-32.194-18.41-64.255-37.055-96.384-55.581
			c-25.705-14.823-51.448-29.578-77.175-44.363c-0.94-2.633-0.397-5.351-0.401-8.025c-0.034-21.231-0.041-42.462,0.002-63.693
			c0.005-2.82-0.462-5.787,1.61-8.227c118.66,0,237.319,0,355.979,0c1.639,1.808,1.416,4.057,1.419,6.223
			c0.026,22.858,0.029,45.716-0.005,68.574c-0.004,2.153,0.299,4.425-1.453,6.189c-34.767,20.136-69.526,40.288-104.306,60.402
			c-22.652,13.101-45.29,26.229-68.051,39.137c-3.653,2.072-5.152,4.281-5.141,8.628
			C320.607,256.233,320.588,322.301,320.616,388.367z"/>
		<path fill-rule="evenodd" clip-rule="evenodd" fill="#2691FE" d="M855.972,1.014c-0.036,25.166-0.144,50.332-0.025,75.498
			c0.017,3.59-0.858,5.698-4.154,7.591c-57.058,32.784-114.037,65.706-170.997,98.658c-2.25,1.302-3.896,1.628-6.374,0.191
			c-58.095-33.686-116.254-67.26-174.402-100.854c-1.464-0.719-1.539-2.036-1.538-3.434c0.026-25.412-0.032-50.824,0.027-76.236
			c0.001-0.543,0.274-0.956,0.471-1.414C617.976,1.014,736.975,1.014,855.972,1.014z"/>
		<path fill-rule="evenodd" clip-rule="evenodd" fill="#0682FE" d="M1922.895,1.014c-0.038,25.485-0.133,50.971-0.037,76.455
			c0.012,3.106-0.965,4.779-3.648,6.324c-57.277,32.952-114.496,66.002-171.731,99.026c-0.576,0.333-1.207,0.57-1.813,0.853
			c-2.329,2.378-4.31,0.578-6.308-0.561c-23.038-13.126-45.962-26.45-68.919-39.716c-32.899-19.013-65.834-37.964-98.681-57.068
			c-2.241-1.304-5.645-1.734-5.953-5.353c0.032-26.654,0.064-53.307,0.097-79.96C1684.898,1.014,1803.896,1.014,1922.895,1.014z"/>
		<path fill-rule="evenodd" clip-rule="evenodd" fill="#FEFEFE" d="M142.028,696.747c-45.085,25.999-90.17,51.998-135.26,77.99
			c-1.893,1.09-3.835,2.097-5.754,3.143c0-122.379,0-244.757,0-367.135c32.174,18.513,64.35,37.023,96.522,55.54
			c13.164,7.576,26.247,15.296,39.526,22.665c3.68,2.042,5.079,4.29,5.069,8.625C141.974,563.965,142.025,630.356,142.028,696.747z"
			/>
		<path fill-rule="evenodd" clip-rule="evenodd" fill="#64B0FE" d="M2029.384,757.596c-33.886-19.543-67.768-39.091-101.661-58.617
			c-1.597-0.919-3.298-1.656-4.95-2.479c-1.777-1.962-1.507-4.415-1.508-6.745c-0.036-64.388-0.046-128.774,0.02-193.161
			c0.003-2.762-0.577-5.901,2.573-7.69c8.271-2.671,15.172-7.927,22.596-12.154c27.72-15.782,55.299-31.812,82.931-47.749
			C2029.384,538.532,2029.384,648.063,2029.384,757.596z"/>
		<path fill-rule="evenodd" clip-rule="evenodd" fill="#FEFEFE" d="M141.986,1.014c0.028,25.093,0.05,50.187,0.094,75.279
			c0.003,1.7,0.068,3.372-1.306,4.666c-33.578,19.324-67.15,38.658-100.736,57.968c-12.992,7.47-26.015,14.887-39.024,22.328
			c0-52.143,0.031-104.286-0.078-156.428C0.93,1.704,1.591,0.921,4.795,0.93C50.525,1.054,96.255,1.014,141.986,1.014z"/>
		<path fill-rule="evenodd" clip-rule="evenodd" fill="#81BEFE" d="M498.979,1.014c0.034,24.898,0.066,49.795,0.106,74.693
			c0.004,2.172-0.29,4.395,0.935,6.391c-0.698-0.032-1.396-0.064-2.094-0.098c0.013-26.995,0.026-53.991,0.039-80.985
			C498.302,1.014,498.641,1.014,498.979,1.014z"/>
		<path fill-rule="evenodd" clip-rule="evenodd" fill="#2691FE" d="M1565.805,80.974c10.602,7.503,22.236,13.273,33.414,19.801
			c34.041,19.875,68.188,39.571,102.31,59.307c13.27,7.676,26.593,15.259,39.863,22.932c1.4,0.81,2.716,1.292,4.273,0.658
			c-0.12,1.845-0.345,3.689-0.345,5.534c-0.018,64.078-0.017,128.154-0.006,192.232c0,2.239-0.674,4.796,2.314,5.884
			c-13.591,7.816-27.178,15.64-40.754,23.482c-43.565,25.165-87.078,50.421-130.768,75.371c-4.352,2.484-5.901,5.276-5.882,10.394
			c0.229,63.15,0.149,126.302,0.118,189.452c-0.001,2.302,0.491,4.786-1.429,6.712c-0.314-0.029-0.628-0.056-0.943-0.077
			c-1.047-1.91-0.505-3.979-0.506-5.964c-0.034-62.867-0.025-125.733-0.043-188.6c-0.001-1.841,0.271-3.709-0.145-5.185
			c0.313,0.804,0.12,2.003,0.12,3.178c0.01,64.049,0.011,128.099-0.007,192.148c-0.001,1.495,0.344,3.049-0.435,4.479
			c-9.998,6.887-20.796,12.435-31.257,18.54c-22.85,13.336-45.86,26.397-68.779,39.615c-23.501,13.554-46.977,27.152-70.448,40.757
			c-2.894,1.677-5.936,3.168-8.237,5.71c-33.334-19.183-66.676-38.355-100-57.555c-24.413-14.064-48.802-28.172-73.215-42.238
			c-1.3-0.749-2.72-1.291-4.083-1.932c-0.933-1.736-0.646-3.625-0.645-5.467c0.029-63.014-0.006-126.027,0.022-189.042
			c0.002-3.026-0.311-6.09,0.625-9.051c5.039-3.944,11.031-6.255,16.523-9.44c52.028-30.172,104.068-60.326,156.286-90.17
			c5.34-3.052,7.47-6.502,7.44-12.794c-0.291-64.882-0.023-129.765-0.236-194.648c-0.004-1.184-0.102-2.37,0.506-3.459
			c36.183-20.948,72.347-41.929,108.556-62.833C1521.909,106.065,1543.872,93.547,1565.805,80.974z"/>
		<path fill-rule="evenodd" clip-rule="evenodd" fill="#64B0FE" d="M1391.46,181.537c1.084,1.838,1.005,3.864,1.005,5.897
			c-0.011,65.685-0.028,131.37,0.05,197.055c0.005,3.034-0.786,4.793-3.57,6.383c-23.402,13.361-46.69,26.921-70.017,40.414
			c-22.601,13.071-45.208,26.129-67.807,39.203c-11.662,6.747-23.322,13.498-34.954,20.297c-1.468,0.859-2.809,0.957-4.266,0.178
			c-5.996-1.018-10.606-4.915-15.633-7.81c-49.817-28.702-99.55-57.55-149.42-86.161c-3.217-1.846-6.445-3.686-9.508-5.78
			c-1.28-0.875-3.259-1.629-1.866-3.88c0.03-65.713,0.127-131.427-0.032-197.14c-0.013-5.171,1.423-8.061,5.986-10.678
			c56.52-32.405,112.928-65.005,169.3-97.666c2.646-1.533,4.423-1.155,6.837,0.242c56.396,32.622,112.835,65.167,169.259,97.738
			C1388.283,180.671,1389.618,181.769,1391.46,181.537z"/>
		<path fill-rule="evenodd" clip-rule="evenodd" fill="#0682FE" d="M1035.475,387.333c0.603,3.268,3.796,3.688,5.938,4.928
			c55.663,32.233,111.406,64.332,167.128,96.464c1.163,0.671,2.242,1.488,3.36,2.237c0.012,66.422,0.021,132.843,0.042,199.264
			c0,1.867,0.081,3.729-1.006,5.382c-47.926,27.723-95.849,55.448-143.775,83.167c-9.789,5.662-19.676,11.164-29.34,17.032
			c-3.126,1.899-5.385,1.953-8.614,0.081c-56.654-32.861-113.394-65.577-170.114-98.322c-1.021-0.589-2.058-1.148-3.088-1.722
			c-2.016-0.893-2.317-2.739-2.544-4.611c-0.182-1.51-0.152-3.032-0.152-4.549c-0.007-62.587-0.008-125.173,0.002-187.759
			c0.001-3.534-0.308-7.167,2.694-9.892c22.618-13.14,45.215-26.315,67.858-39.413c35.213-20.369,70.454-40.688,105.697-61.006
			C1031.359,387.578,1033.068,385.743,1035.475,387.333z"/>
		<path fill-rule="evenodd" clip-rule="evenodd" fill="#2691FE" d="M856.004,489.034c-0.848,2.411-1.063,4.881-1.062,7.441
			c0.037,64.155,0.029,128.31,0.031,192.465c0,2.353-0.271,4.747,1.032,6.905c-23.769,13.827-47.513,27.697-71.313,41.473
			c-34.473,19.953-68.993,39.824-103.465,59.779c-2.292,1.326-4.031,2.082-6.819,0.465c-57.521-33.364-115.126-66.585-172.71-99.84
			c-0.582-0.336-1.113-0.76-1.668-1.143c-1.958-1.913-1.446-4.405-1.447-6.707c-0.036-64.361-0.031-128.721-0.021-193.081
			c0-2.364-0.138-4.765,1.475-6.781c32.274-18.698,64.542-37.41,96.827-56.089c25.568-14.793,51.184-29.501,76.701-44.382
			c2.806-1.636,4.802-1.767,7.719-0.075c56.365,32.68,112.806,65.229,169.246,97.779
			C852.199,488.206,853.69,489.948,856.004,489.034z"/>
		<path fill-rule="evenodd" clip-rule="evenodd" fill="#0682FE" d="M321.703,799.396c-5.885-1.357-10.551-5.15-15.61-8.063
			c-54.051-31.104-108.021-62.348-162.006-93.566c-0.419-0.242-0.734-0.665-1.098-1.005c0.009-66.584,0.063-133.169-0.079-199.753
			c-0.009-4.32,1.474-6.647,5.071-8.716c34.165-19.651,68.236-39.464,102.358-59.19c22.166-12.813,44.373-25.556,66.555-38.342
			c1.495-0.861,3.049-1.43,4.792-1.412c22.237,12.752,44.503,25.454,66.706,38.267c36.532,21.082,73.022,42.235,109.53,63.358
			c1.529,1.728,1.033,3.847,1.034,5.821c0.027,64.83,0.026,129.66,0.007,194.489c-0.001,2.163,0.391,4.426-1.047,6.367
			c-42.06,24.337-84.11,48.689-126.183,73.004C355.08,780.279,338.38,789.819,321.703,799.396z"/>
		<path fill-rule="evenodd" clip-rule="evenodd" fill="#4EA5FE" d="M497.914,697.652c0.035-51.163,0.081-102.326,0.098-153.489
			c0.006-17.729-0.059-35.458-0.092-53.188c0.707-0.321,1.412-0.643,2.118-0.964c-0.002,68.856-0.004,137.713-0.007,206.569
			C499.326,696.938,498.62,697.296,497.914,697.652z"/>
		<path fill-rule="evenodd" clip-rule="evenodd" fill="#0682FE" d="M1568.915,692.731c0.014-65.902,0.16-131.805-0.208-197.706
			c-0.029-5.24,1.777-7.214,5.556-9.382c40.476-23.215,80.905-46.512,121.34-69.797c15.474-8.911,30.96-17.799,46.354-26.844
			c1.856-1.09,3.625-1.644,5.672-1.682c21.947,12.573,43.924,25.093,65.832,37.733c36.822,21.243,73.601,42.562,110.396,63.849
			c-1.23,2.188-0.918,4.585-0.918,6.933c-0.006,64.524-0.002,129.05-0.011,193.575c-0.001,2.362-0.103,4.726-0.156,7.089
			c-57.053,32.902-114.106,65.807-171.162,98.705c-1.311,0.756-2.655,1.453-3.984,2.177c-5.91-5.395-13.212-8.609-20.016-12.563
			c-41.243-23.957-82.565-47.777-123.871-71.627C1592.079,706.461,1580.153,700.182,1568.915,692.731z"/>
		<path fill-rule="evenodd" clip-rule="evenodd" fill="#4EA5FE" d="M1566.957,692.712c0-66.532,0-133.064,0-199.596
			c0.339,0,0.676-0.001,1.014-0.002c0,66.514,0,133.027,0,199.541C1567.634,692.673,1567.296,692.693,1566.957,692.712z"/>
	</g>
</g>
</svg>
